/home/minht/3dpredictsim_tutorial/predsim_tutorial/Results/Case_10/GRF.mot
version=1
nRows=30
nColumns=19
inDegrees=yes
endheader 
time	r_ground_force_vx	r_ground_force_vy	r_ground_force_vz	r_ground_force_px	r_ground_force_py	r_ground_force_pz	l_ground_force_vx	l_ground_force_vy	l_ground_force_vz	l_ground_force_px	l_ground_force_py	l_ground_force_pz	r_ground_torque_x	r_ground_torque_y	r_ground_torque_z	l_ground_torque_x	l_ground_torque_y	l_ground_torque_z	
          0.00000000	        -78.37010896	         56.98516565	        -26.32690335	         -4.62761106	          0.00000000	          1.09689157	        147.70860700	        892.14432307	        -32.33946157	          0.01615843	          0.00000000	         -0.00650764	          0.00000000	        214.77326674	          0.00000000	          0.00000000	         15.08334607	          0.00000000	
          0.03031555	        -92.63461062	        203.55205641	        -64.05567964	         -1.16575613	          0.00000000	          0.28214589	        142.30318251	        820.41986533	        -18.40946683	          0.06917543	          0.00000000	         -0.02317549	          0.00000000	        111.50927265	          0.00000000	          0.00000000	         28.58001212	          0.00000000	
          0.06063110	       -158.75780166	        670.22253061	        -16.08659949	         -0.29607206	          0.00000000	          0.07440659	        113.11402851	        706.76912329	         -2.81646892	          0.30279356	          0.00000000	         -0.07918458	          0.00000000	         27.78789077	          0.00000000	          0.00000000	         19.77827004	          0.00000000	
          0.09094665	       -194.89495752	        761.57597162	        -16.41332768	         -0.19462822	          0.00000000	          0.05263135	         73.32303775	        553.23821906	          8.23893473	          0.45307492	          0.00000000	         -0.11512789	          0.00000000	         23.58744208	          0.00000000	          0.00000000	         24.28680207	          0.00000000	
          0.12126219	       -166.71118771	        762.56195668	         -9.04613158	         -0.13242822	          0.00000000	          0.04035889	         38.61124149	        400.29705639	         12.17291128	          0.63128555	          0.00000000	         -0.16071437	          0.00000000	         16.11892158	          0.00000000	          0.00000000	         22.51396137	          0.00000000	
          0.15157774	       -124.21369817	        720.86375825	         -4.34621827	         -0.10035786	          0.00000000	          0.03315990	         13.97136558	        301.90322252	         11.93899435	          0.79088730	          0.00000000	         -0.20386851	          0.00000000	          9.89415183	          0.00000000	          0.00000000	         16.92572887	          0.00000000	
          0.18189329	        -91.58580336	        686.39520895	         -1.96694332	         -0.08291724	          0.00000000	          0.02701642	          0.86971814	        245.92073095	         12.13502638	          0.92263975	          0.00000000	         -0.24094927	          0.00000000	          6.21260684	          0.00000000	          0.00000000	         13.05885610	          0.00000000	
          0.21220884	        -69.54954193	        669.83842218	         -2.22046835	         -0.07279907	          0.00000000	          0.02259781	         -3.95587165	        216.59644307	         16.77551089	          1.01999697	          0.00000000	         -0.26960735	          0.00000000	          5.49089287	          0.00000000	          0.00000000	         16.13735631	          0.00000000	
          0.24252439	        -54.21022699	        670.53159943	         -2.50816610	         -0.06565544	          0.00000000	          0.01997509	         -8.45957953	        199.77303043	         21.18755137	          1.10493025	          0.00000000	         -0.29524356	          0.00000000	          5.40570030	          0.00000000	          0.00000000	         19.95147243	          0.00000000	
          0.27283994	        -43.11233251	        684.26254698	         -2.24800462	         -0.05858009	          0.00000000	          0.01789514	        -12.07597386	        184.98386199	         27.03089310	          1.21597864	          0.00000000	         -0.32827364	          0.00000000	          5.97293008	          0.00000000	          0.00000000	         26.88790241	          0.00000000	
          0.30315548	        -34.47484545	        707.79620708	         -1.68960196	         -0.05095798	          0.00000000	          0.01570086	        -16.41675961	        169.17978228	         33.54251269	          1.37410265	          0.00000000	         -0.37481677	          0.00000000	          6.70167037	          0.00000000	          0.00000000	         36.91490226	          0.00000000	
          0.33347103	        -27.03809723	        737.67289886	         -0.32010084	         -0.04242160	          0.00000000	          0.01320905	        -22.13990617	        149.25475283	         39.25797870	          1.62271313	          0.00000000	         -0.44763324	          0.00000000	          7.15663785	          0.00000000	          0.00000000	         49.81132269	          0.00000000	
          0.36378658	        -21.06275393	        774.11933226	          2.02028946	         -0.03148545	          0.00000000	          0.00991493	        -31.85442945	        118.30903877	         41.88385543	          2.14874251	          0.00000000	         -0.60059238	          0.00000000	          6.70753957	          0.00000000	          0.00000000	         66.09509985	          0.00000000	
          0.39410213	        -16.93158356	        816.12017254	          6.51638839	         -0.01777531	          0.00000000	          0.00562734	        -41.91985608	         71.87868030	         30.90988916	          3.73309148	          0.00000000	         -1.05923466	          0.00000000	          3.53945648	          0.00000000	          0.00000000	         65.31568896	          0.00000000	
          0.42441768	        -14.20260988	        858.77046483	         12.14862658	         -0.00615929	          0.00000000	          0.00195532	          0.00000000	          0.00000000	          0.00000000	          0.00000000	          0.00000000	          0.00000000	          0.00000000	         -0.73182433	          0.00000000	          0.00000000	          0.00000000	          0.00000000	
          0.45473323	         -8.01214628	        874.62568283	         18.30567951	         -0.00108384	          0.00000000	          0.00041171	          0.00000000	          0.00000000	          0.00000000	          0.00000000	          0.00000000	          0.00000000	          0.00000000	         -0.68476724	          0.00000000	          0.00000000	          0.00000000	          0.00000000	
          0.48504878	         -1.11744511	        866.61575092	         22.62871281	         -0.00020890	          0.00000000	          0.00012584	          0.00000000	          0.00000000	          0.00000000	          0.00000000	          0.00000000	          0.00000000	          0.00000000	         -0.23457892	          0.00000000	          0.00000000	          0.00000000	          0.00000000	
          0.51536432	          5.54385591	        853.07590948	         25.33721854	         -0.00003659	          0.00000000	          0.00005158	          0.00000000	          0.00000000	          0.00000000	          0.00000000	          0.00000000	          0.00000000	          0.00000000	         -0.08934389	          0.00000000	          0.00000000	          0.00000000	          0.00000000	
          0.54567987	         11.55748829	        844.69491410	         27.24518762	          0.00000494	          0.00000000	          0.00003474	          0.00000000	          0.00000000	          0.00000000	          0.00000000	          0.00000000	          0.00000000	          0.00000000	         -0.05708388	          0.00000000	          0.00000000	          0.00000000	          0.00000000	
          0.57599542	         17.39577044	        840.86123202	         28.18954014	          0.00004577	          0.00000000	          0.00004873	          0.00000000	          0.00000000	          0.00000000	          0.00000000	          0.00000000	          0.00000000	          0.00000000	         -0.07820923	          0.00000000	          0.00000000	          0.00000000	          0.00000000	
          0.60631097	         24.22050140	        836.25155251	         27.87525861	          0.00020361	          0.00000000	          0.00011922	          0.00000000	          0.00000000	          0.00000000	          0.00000000	          0.00000000	          0.00000000	          0.00000000	         -0.19085020	          0.00000000	          0.00000000	          0.00000000	          0.00000000	
          0.63662652	         31.59993406	        831.49586884	         26.61556607	          0.00068036	          0.00000000	          0.00027847	          0.00000000	          0.00000000	          0.00000000	          0.00000000	          0.00000000	          0.00000000	          0.00000000	         -0.45149179	          0.00000000	          0.00000000	          0.00000000	          0.00000000	
          0.66694207	         38.58219453	        830.50355499	         24.63025417	          0.00129874	          0.00000000	          0.00041878	          0.00000000	          0.00000000	          0.00000000	          0.00000000	          0.00000000	          0.00000000	          0.00000000	         -0.72036298	          0.00000000	          0.00000000	          0.00000000	          0.00000000	
          0.69725761	         40.47169472	        839.84850602	         22.86548896	          0.00147554	          0.00000000	          0.00040323	          0.00000000	          0.00000000	          0.00000000	          0.00000000	          0.00000000	          0.00000000	          0.00000000	         -0.78388624	          0.00000000	          0.00000000	          0.00000000	          0.00000000	
          0.72757316	         37.63263188	        860.86568160	         20.93517085	          0.00126455	          0.00000000	          0.00030774	          0.00000000	          0.00000000	          0.00000000	          0.00000000	          0.00000000	          0.00000000	          0.00000000	         -0.69351462	          0.00000000	          0.00000000	          0.00000000	          0.00000000	
          0.75788871	         36.78159477	        887.92659859	         21.30580719	          0.00101998	          0.00000000	          0.00022541	          0.00000000	          0.00000000	          0.00000000	          0.00000000	          0.00000000	          0.00000000	          0.00000000	         -0.57241726	          0.00000000	          0.00000000	          0.00000000	          0.00000000	
          0.78820426	         37.37734759	        896.40340036	         19.12866573	          0.00127517	          0.00000000	          0.00024681	          0.00000000	          0.00000000	          0.00000000	          0.00000000	          0.00000000	          0.00000000	          0.00000000	         -0.67463212	          0.00000000	          0.00000000	          0.00000000	          0.00000000	
          0.81851981	         36.89946072	        875.68655005	         15.50815974	          0.00449147	          0.00000000	          0.00070904	          0.00000000	          0.00000000	          0.00000000	          0.00000000	          0.00000000	          0.00000000	          0.00000000	         -2.03223088	          0.00000000	          0.00000000	          0.00000000	          0.00000000	
          0.84883536	         34.56136433	        825.04339749	          9.20261076	          0.03199618	          0.00000000	          0.00375963	        -50.06581054	         39.06926813	          9.60496069	          7.69197327	          0.00000000	         -2.01262536	          0.00000000	        -10.36006032	          0.00000000	          0.00000000	        -47.17282480	          0.00000000	
          0.87915091	         21.45272262	        700.59246279	        -11.55644200	          0.35051057	          0.00000000	          0.03022666	         30.16350777	        380.03339777	         72.67355921	          0.68253865	          0.00000000	         -0.17406893	          0.00000000	        -44.35694690	          0.00000000	          0.00000000	         44.72776086	          0.00000000	
